<?xml version="1.0" encoding="UTF-8"?><svg id="Layer_7" xmlns="http://www.w3.org/2000/svg" viewBox="0 0 4000 4000"><defs><style>.cls-1,.cls-2,.cls-3,.cls-4,.cls-5,.cls-6{stroke-width:0px;}.cls-2{fill:#777;}.cls-3{fill:#555;}.cls-4{fill:#ccc;}.cls-5{fill:#999;}.cls-6{fill:#fff;}</style></defs><rect class="cls-1" width="4000" height="4000"/><rect class="cls-6" x="1930.56" width="138.89" height="4000"/><path class="cls-2" d="M4000,2097.52c-313.02-233.65-723.14-375.3-1172.12-375.3-271.28,0-528.37,51.73-758.43,144.19v2133.58h1930.56v-1902.48Z"/><circle class="cls-3" cx="3349.5" cy="629.5" r="367.5"/><path class="cls-5" d="M1321.95,2420.72c185.48,88.95,360.56,190.32,523.23,303.08,28.91,20.04,57.38,40.44,85.38,61.14v-34.46c-177.75-129.72-376.75-249.04-593.48-353.25,72.65-108.87,170.32-204.85,292-286.67,89.67-60.3,190.46-111.64,301.49-153.82v-29.72c-117,43.64-223.04,97.24-317.18,160.55-125.96,84.7-226.89,184.33-301.75,297.53-102.7-48.51-209.27-93.66-319.35-134.93-337.11-126.41-673.68-204.02-992.28-236.17v27.99c322.98,32.93,657.1,112.19,982.39,234.17,107.58,40.34,212.4,84.56,314.16,132.5-31.18,50.34-57.39,103.24-78.46,158.64-72.56,190.73-80.25,399.12-22.84,619.38,55.23,211.89,168.11,425.8,335.5,635.78,48.17,60.43,100.19,119.65,155.87,177.56h38.86c-62.15-63.37-119.82-128.36-172.79-194.8-164.96-206.92-276.11-417.37-330.35-625.5-55.93-214.6-48.55-417.34,21.93-602.61,20.78-54.63,46.73-106.78,77.68-156.37Z"/><path class="cls-6" d="M2810.83,1180.45h-273.15v1638.89h273.15c452.57,0,819.44-366.88,819.44-819.44h0c0-452.57-366.88-819.44-819.44-819.44Z"/><path class="cls-1" d="M3169.38,1958.32l-306.62-177.03c-32-18.48-72,4.62-72,41.57v354.05c0,36.95,40,60.04,72,41.57l306.62-177.03c32-18.48,32-64.66,0-83.14Z"/><path class="cls-6" d="M1189.43,1180.45c-452.57,0-819.44,366.88-819.44,819.44h0c0,452.57,366.88,819.45,819.44,819.45h273.15v-1638.89h-273.15Z"/><path class="cls-1" d="M806.18,2041.46l306.62,177.03c32,18.48,72-4.62,72-41.57v-354.05c0-36.95-40-60.04-72-41.57l-306.62,177.03c-32,18.48-32,64.66,0,83.14Z"/><path class="cls-4" d="M1407.41,2763.85v.04h-217.59c-103.15,0-203.18-20.19-297.32-60.01-90.96-38.47-172.66-93.56-242.83-163.73-70.17-70.17-125.26-151.87-163.73-242.83-39.82-94.14-60.01-194.17-60.01-297.32s20.19-203.18,60.01-297.32c38.47-90.96,93.56-172.66,163.73-242.83,70.17-70.17,151.87-125.26,242.83-163.73,94.14-39.82,194.17-60.01,297.32-60.01h273.15v-55.56h-273.15c-452.57,0-819.44,366.88-819.44,819.44h0c0,452.57,366.88,819.45,819.44,819.45h273.15v-55.6h-55.56Z"/><path class="cls-4" d="M1462.96,1180.56h-273.15c-452.57,0-819.44,366.88-819.44,819.44h0c0,452.57,366.88,819.45,819.44,819.45h273.15v-55.6h-55.56v.04h-217.59c-103.15,0-203.18-20.19-297.32-60.01-90.96-38.47-172.66-93.56-242.83-163.73-70.17-70.17-125.26-151.87-163.73-242.83-39.82-94.14-60.01-194.17-60.01-297.32s20.19-203.18,60.01-297.32c38.47-90.96,93.56-172.66,163.73-242.83,70.17-70.17,151.87-125.26,242.83-163.73,94.14-39.82,194.17-60.01,297.32-60.01h273.15v-55.56h0Z"/><path class="cls-4" d="M2592.59,1236.15v-.04h217.59c103.15,0,203.18,20.19,297.32,60.01,90.96,38.47,172.66,93.56,242.83,163.73,70.17,70.17,125.26,151.87,163.73,242.83,39.82,94.14,60.01,194.17,60.01,297.32,0,103.15-20.19,203.18-60.01,297.32-38.47,90.96-93.56,172.66-163.73,242.83-70.17,70.17-151.87,125.26-242.83,163.73-94.14,39.82-194.17,60.01-297.32,60.01h-181.5s-36.1,0-36.1,0h-55.56v55.56h273.15c452.57,0,819.44-366.88,819.44-819.44h0c0-452.57-366.88-819.45-819.44-819.45h-273.15v55.6h55.56Z"/><path class="cls-4" d="M1409.39,2794.85c13.86-13.86,33.86-22.83,53.58-24.29v-51.72h-55.56l-45,.04h-172.59c-97.09,0-191.23-18.99-279.79-56.45-85.59-36.2-162.49-88.05-228.54-154.11-66.05-66.05-117.9-142.95-154.1-228.54-37.46-88.57-56.45-182.7-56.45-279.79s18.99-191.23,56.45-279.79c36.2-85.59,88.05-162.48,154.11-228.54,66.05-66.05,142.94-117.9,228.54-154.1,88.56-37.46,182.7-56.45,279.79-56.45h273.15v-56.22c-.81.03-1.61.06-2.42.06h-120.62c-16.11,0-30.92-4.8-44.03-12.96-13.33,8.2-29.15,12.96-44.43,12.96-22.69,0-42.82-9.48-59.2-24.52-.36-.33-.69-.68-1.04-1.02-10.7,1.79-21.39,3.66-32.06,5.64-47.19,8.76-94.08,19.26-140.41,31.77-36.4,9.83-72.46,20.84-107.44,34.9-13.67,6-27.19,12.33-40.55,18.98-62.25,31.02-121.46,68.3-176.89,110.3-10.4,8.2-20.66,16.58-30.75,25.16-41.25,35.08-80,73.4-113.85,115.72-20.69,27.76-39.14,57.25-53.58,88.73-4.02,13.88-11.12,25.95-21.32,36.22-5.65,4.36-11.3,8.73-16.94,13.09-2.93,1.89-5.98,3.51-9.12,4.89-3.66,31.75-7.8,63.44-11.94,95.13-9.57,73.24-19.1,146.55-24.06,220.28-4.68,69.63-5.35,139.82,2.9,209.19,6.84,45.32,17.91,89.97,34.79,132.61,19.69,43.89,45.06,85.39,73.86,123.9,36.31,45.52,78,86.47,123.56,122.71,11.73,8.83,23.67,17.38,35.83,25.61,50.28,34.02,103.96,62.82,159.62,86.99,21.76,8.91,43.79,17.15,66.06,24.7,91.2,30.91,185.53,48.74,280.71,61.98,21.1,2.76,42.23,5.3,63.39,7.58,48.5,5.22,97.16,9.25,145.89,11.82,2.89-4.5,6.38-8.66,10.47-12.46Z"/><path class="cls-4" d="M3588.5,1918.38c-7.6-51.39-19.73-102.16-38.91-150.48-2.02-4.52-4.1-9.01-6.24-13.47-7.57-13.06-11.38-27.14-11.43-42.26,1-7.42,1.99-14.84,2.99-22.26,1.39-6.12,3.68-11.89,6.66-17.29-30.23-46.2-61.54-91.73-95.01-135.65-7.74-9.86-15.59-19.63-23.61-29.27-30.12-36.21-62.4-71.27-99.05-101.02-13.02-9.51-26.66-18.21-41.05-25.45-12.11-4.17-22.78-10.83-31.99-19.98-4.36-5.65-8.73-11.3-13.09-16.94-2.33-3.62-4.26-7.43-5.82-11.36-22.92-6.38-45.65-13.4-68.09-21.27-29.24-10.25-58.18-21.92-86.08-35.39-9.56-4.61-18.96-9.56-28.08-14.99-14.23-8.48-26.96-18.57-40.08-28.72-6.5-6.55-11.75-13.83-15.74-21.85-31.38-2.45-62.76-4.8-94.17-6.93-120.7-8.2-241.69-13.46-362.68-11.49v88.82h55.56l45-.04h172.59c97.09,0,191.23,18.99,279.79,56.45,85.59,36.2,162.48,88.05,228.54,154.1,66.05,66.05,117.9,142.95,154.1,228.54,37.46,88.56,56.45,182.7,56.45,279.79s-18.99,191.23-56.45,279.79c-36.2,85.59-88.05,162.48-154.11,228.54-66.05,66.05-142.94,117.9-228.54,154.1-88.56,37.46-182.7,56.45-279.79,56.45h-273.15v72.56c65.86-1.39,131.71-3.13,197.5-6.54,69.61-3.61,139.14-9.1,208.28-18,23.74-3.33,47.42-7.08,71.01-11.34,62.77-11.33,124.94-26.27,185.64-45.79,2.99-3.2,6.01-6.38,9.08-9.52,38.62-39.46,82.04-74.19,126.47-106.82,28.28-20.77,57.59-40.58,88.32-57.68,3.13-12.19,6.38-24.35,9.81-36.46,13.98-49.36,31.53-97.13,51.77-144.26,18.33-42.7,40.4-83.74,66.49-122.22,7.44-12.58,17.46-22.59,30.04-30.04,4.63-1.95,9.26-3.91,13.89-5.86.53-17.3,1.01-34.6,1.36-51.9,1.54-75.58.97-151.5-8.17-226.63Z"/></svg>