<?xml version="1.0" encoding="UTF-8"?><svg xmlns="http://www.w3.org/2000/svg" viewBox="0 0 2000 2000"><defs><style>.cls-1{fill:#00c853;}</style></defs><g id="Layer_7"><rect class="cls-1" x="-1.63" y="-1.9" width="2000" height="2000"/></g><g id="Layer_4"><path d="m1706.13,1067.59v-356.52s0-178,0-178v-178s0-178,0-178v-.6l-157.16,83.56v.6l-157.16,83.57v-.6l-157.16,83.56v.6h0s0-.6,0-.6h0v-178h0s-157.16,83.56-157.16,83.56v178s0,.6,0,.6v321.51l154.69,94.1-154.69,82.25v214.13s0,178,0,178v177.4l157.16-83.56-12.95,6.89c.14.3.28.6.41.9l12.55-6.67v-178s0,0,0,0h0s0,0,0,0h0s1.76-.93,1.76-.93h0s0,0,0,0l155.39-82.62v-356.52s157.16-83.56,157.16-83.56v356.51l157.16-83.56Zm-314.32-367.38v-178s157.16-83.57,157.16-83.57v178l-157.16,83.56Z"/><path d="m763.17,1022.26h0s157.16-96.57,157.16-96.57v-509.39l-157.16,83.56h0v166.04h0s0,11.96,0,11.96h0s0,.6,0,.6h0v166.4l-157.13-83.45-.03.02v.6l-158.25,84.14v-.6l-157.16,83.56v890.58s157.16-83.56,157.16-83.56l158.25-84.14v.52l71.46-38,85.7-109.84v182.11h0v59.04l111.03-59.04h.27v-.15l45.85-24.38v-555.62l-157.16-84.41Zm-315.41,1.91l158.25-84.14v177.42s0,0,0,0v.58l-158.25,84.14v-178Zm0,533.99v-178l158.25-84.14v178s-158.25,84.14-158.25,84.14Z"/></g></svg>