<?xml version="1.0" encoding="UTF-8"?><svg id="Layer_3" xmlns="http://www.w3.org/2000/svg" viewBox="0 0 637 328"><defs><style>.cls-1{fill:#fff;}.cls-2{fill:#999;}.cls-3{fill:#333;}</style></defs><rect class="cls-3" x=".5" y=".5" width="636" height="327"/><path class="cls-1" d="m636,1v326H1V1h635m1-1H0v328h637V0h0Z"/><path class="cls-2" d="m287.59,142.37v41.01h5.1l11.51-15.69,2.76-3.76,2.76,3.76,4.19,5.72,11.83-18.1,2.86-4.39,2.86,4.37,18.36,28.08h6.12v-41.01h-68.35Zm.09,47.85h-6.92v-54.68h82.02v54.68h-75.1Zm15.86-41.01c2.52,0,4.56,2.04,4.56,4.56s-2.04,4.56-4.56,4.56-4.56-2.04-4.56-4.56,2.04-4.56,4.56-4.56Z"/></svg>