<?xml version="1.0" encoding="UTF-8"?><svg id="Layer_1" xmlns="http://www.w3.org/2000/svg" viewBox="0 0 637 328"><defs><style>.cls-1{fill:#fff;}.cls-2{fill:#666;}.cls-3{fill:#222;}</style></defs><rect class="cls-3" x=".5" y=".5" width="636" height="327"/><path class="cls-1" d="m636,1v326H1V1h635m1-1H0v328h637V0h0Z"/><path class="cls-2" d="m300.32,139.71h54.04v36.03h-5.24l-14.45-22.11-2.83-4.33-2.83,4.32-7.35,11.23-1.75-2.38-2.72-3.7-2.73,3.72-9.71,13.26h-4.45v-36.03Zm-6.76-6.76v49.54h67.55v-49.54h-67.55Zm-6.76,12.38v-3.38h-6.76v54.04h67.55v-6.76h-60.8v-43.91Zm29.27,3.38c0-2.49-2.02-4.5-4.5-4.5s-4.5,2.02-4.5,4.5,2.02,4.5,4.5,4.5,4.5-2.02,4.5-4.5Z"/></svg>