<?xml version="1.0" encoding="UTF-8"?><svg xmlns="http://www.w3.org/2000/svg" viewBox="0 0 637 180"><defs><style>.cls-1{fill:none;}.cls-1,.cls-2,.cls-3{stroke-width:0px;}.cls-2{fill:#eff1f3;}.cls-3{fill:#bcc4cc;}</style></defs><g id="Layer_7"><rect class="cls-3" x=".14" y=".06" width="637" height="180"/><path class="cls-1" d="M210.32,180h35.45c-9.06-4.93-18.28-9.7-27.68-14.25-2.85,4.62-5.44,9.37-7.77,14.25Z"/><rect class="cls-3" x="318.5" y="33.65" width="64.82" height="107"/><rect class="cls-3" x="237.65" y="36.32" width="80.85" height="104.33"/><path class="cls-2" d="M279.78,59.3c-4.6,0-8.33,3.73-8.33,8.33v44.44c0,2.45,1.04,4.64,2.73,6.16l30.14-37.64c1.67-2.08,4.84-2.08,6.51,0l15.47,19.34,5.8-7.99c1.61-2.2,4.86-2.31,6.6-.19l22.69,27.73c2.67-1.39,4.51-4.18,4.51-7.41v-44.44c0-4.6-3.73-8.33-8.33-8.33h-77.78ZM336.54,93.52c-.59-.69-1.67-.66-2.2.07l-6.25,8.59,13.89,17.36.69.87h14.9c.31,0,.63-.02.94-.05l-21.96-26.84ZM339.12,120.41l-13.87-17.33-16.6-20.76c-.56-.69-1.61-.69-2.17,0l-29.95,37.43c.99.42,2.1.66,3.25.66h59.32s.02,0,.02,0ZM368.67,112.08c0,6.13-4.98,11.11-11.11,11.11h-77.78c-6.13,0-11.11-4.98-11.11-11.11v-44.44c0-6.13,4.98-11.11,11.11-11.11h77.78c6.13,0,11.11,4.98,11.11,11.11v44.44ZM352.01,78.74c0-3.07-2.49-5.56-5.56-5.56s-5.56,2.49-5.56,5.56,2.49,5.56,5.56,5.56,5.56-2.49,5.56-5.56ZM354.78,78.74c0,4.6-3.73,8.33-8.33,8.33s-8.33-3.73-8.33-8.33,3.73-8.33,8.33-8.33,8.33,3.73,8.33,8.33Z"/></g><g id="Layer_8"><polygon class="cls-2" points="318.5 93.02 318.5 121.48 358.5 121.48 360.32 120.41 335.98 91.48 326.98 101.11 325.48 101.11 318.5 93.02"/><circle class="cls-2" cx="346.67" cy="78.32" r="6.77"/><rect class="cls-2" x="318.5" y="58.63" width="2.78" height="35.72"/></g></svg>