<?xml version="1.0" encoding="UTF-8"?><svg id="Layer_7" xmlns="http://www.w3.org/2000/svg" xmlns:xlink="http://www.w3.org/1999/xlink" viewBox="0 0 637 180"><defs><style>.cls-1{fill:none;}.cls-1,.cls-2,.cls-3,.cls-4{stroke-width:0px;}.cls-2{fill:#eff1f3;}.cls-3{fill:url(#linear-gradient);}.cls-4{fill:#bcc4cc;}</style><linearGradient id="linear-gradient" x1="0" y1="131.77" x2="318.5" y2="131.77" gradientUnits="userSpaceOnUse"><stop offset="0" stop-color="#bcc4cc"/><stop offset="1" stop-color="#eff1f3"/></linearGradient></defs><rect class="cls-4" width="637" height="180"/><circle class="cls-2" cx="358.97" cy="36.72" r="20.19"/><path class="cls-1" d="M210.32,180h35.45c-9.06-4.93-18.28-9.7-27.68-14.25-2.85,4.62-5.44,9.37-7.77,14.25Z"/><path class="cls-2" d="M443.68,59.98c-44.78,0-87.21,8.45-125.18,23.56v96.46h318.5v-58.8c-51.65-38.12-119.28-61.22-193.32-61.22Z"/><path class="cls-3" d="M218.09,165.75c9.4,4.55,18.61,9.32,27.68,14.25h9.56c-11.24-6.31-22.82-12.38-34.74-18.16,11.99-18.13,28.1-34.11,48.17-47.73,14.79-10.04,31.42-18.59,49.74-25.61v-4.95c-19.3,7.27-36.8,16.19-52.33,26.73-20.78,14.1-37.43,30.69-49.78,49.54-16.94-8.08-34.52-15.6-52.69-22.47C108.09,116.3,52.56,103.38,0,98.02v4.66c53.28,5.48,108.41,18.68,162.07,38.99,17.75,6.72,35.04,14.08,51.83,22.06-3.22,5.25-6.13,10.67-8.7,16.26h5.11c2.33-4.88,4.92-9.63,7.77-14.25Z"/></svg>