<?xml version="1.0" encoding="UTF-8"?><svg xmlns="http://www.w3.org/2000/svg" viewBox="0 0 637 180"><defs><style>.cls-1{fill:none;}.cls-1,.cls-2,.cls-3{stroke-width:0px;}.cls-2{fill:#eff1f3;}.cls-3{fill:#bcc4cc;}</style></defs><g id="Layer_7"><rect class="cls-3" x=".14" width="637" height="180"/><path class="cls-1" d="M210.32,180h35.45c-9.06-4.93-18.28-9.7-27.68-14.25-2.85,4.62-5.44,9.37-7.77,14.25Z"/><rect class="cls-3" x="318.5" y="33.65" width="64.82" height="107"/><rect class="cls-3" x="237.65" y="36.32" width="80.85" height="104.33"/></g><g id="Layer_8"><circle class="cls-2" cx="346.67" cy="78.32" r="6.77"/><path class="cls-2" d="M271.42,59.03v61.11s2.78,0,2.78,0l-1.08-.87,33.33-41.67,1.08-1.35,1.08,1.35,17.66,22.07,7.92-10.9,1.06-1.46,1.15,1.39,25,30.56c.21.26.31.57.31.89h4.17s0-61.11,0-61.11h-94.44ZM335.38,91.86l-7.31,10.05,13.89,17.36.69.87h15.87s-23.14-28.28-23.14-28.28ZM325.22,102.81l-17.69-22.12-31.56,39.44h63.12s-13.87-17.33-13.87-17.33ZM368.64,59.03v61.11s0,2.78,0,2.78h-2.78s-94.44,0-94.44,0h-2.78v-2.78s0-61.11,0-61.11v-2.78h2.78s94.44,0,94.44,0h2.78v2.78ZM351.97,78.47c0-3.07-2.49-5.56-5.56-5.56s-5.56,2.49-5.56,5.56,2.49,5.56,5.56,5.56,5.56-2.49,5.56-5.56ZM354.75,78.47c0,4.6-3.73,8.33-8.33,8.33s-8.33-3.73-8.33-8.33,3.73-8.33,8.33-8.33,8.33,3.73,8.33,8.33Z"/><polygon class="cls-2" points="357.28 114.24 356.02 115.3 338.28 94.21 338.92 93.45 336.47 90.5 333.98 90.58 332.42 94.46 332.92 94.76 326.98 101.11 325.48 101.11 318.5 93.02 318.5 121.48 358.5 121.48 360.15 120.51 362.33 120.41 357.28 114.24"/><polygon class="cls-2" points="275.88 115.82 271.09 121.78 274.76 121.78 275.29 119.01 275.88 115.82"/></g></svg>