<?xml version="1.0" encoding="UTF-8"?><svg id="Layer_7" xmlns="http://www.w3.org/2000/svg" viewBox="0 0 637 328"><defs><style>.cls-1{fill:#bcc4cc;}.cls-1,.cls-2{stroke-width:0px;}.cls-2{fill:#eff1f3;}</style></defs><rect class="cls-1" width="637" height="328"/><path class="cls-2" d="M637,328v-118.8c-51.65-38.12-119.28-61.22-193.32-61.22-44.78,0-87.21,8.45-125.18,23.56v156.46h318.5Z"/><circle class="cls-2" cx="532.77" cy="71.52" r="47"/><path class="cls-2" d="M213.9,251.74c-5.14,8.38-9.47,17.19-12.94,26.42-6,15.92-9.31,32.57-9.93,49.85h4.62c.62-16.72,3.82-32.83,9.62-48.21,3.43-9.1,7.71-17.78,12.82-26.04,30.6,14.81,59.48,31.69,86.32,50.47,4.77,3.34,9.47,6.73,14.09,10.18v-5.74c-29.32-21.6-62.16-41.47-97.91-58.82,11.99-18.13,28.1-34.11,48.17-47.73,14.79-10.04,31.42-18.59,49.74-25.61v-4.95c-19.3,7.27-36.8,16.19-52.33,26.73-20.78,14.1-37.43,30.69-49.78,49.54-16.94-8.08-34.52-15.6-52.69-22.47C108.09,204.3,52.56,191.38,0,186.02v4.66c53.28,5.48,108.41,18.68,162.07,38.99,17.75,6.72,35.04,14.08,51.83,22.06Z"/></svg>