<?xml version="1.0" encoding="UTF-8"?><svg id="Layer_7" xmlns="http://www.w3.org/2000/svg" viewBox="0 0 637 180"><defs><style>.cls-1{fill:none;}.cls-1,.cls-2,.cls-3{stroke-width:0px;}.cls-2{fill:#eff1f3;}.cls-3{fill:#bcc4cc;}</style></defs><rect class="cls-3" width="637" height="180"/><circle class="cls-2" cx="394.06" cy="50.13" r="33.52"/><path class="cls-1" d="M210.32,180h35.45c-9.06-4.93-18.28-9.7-27.68-14.25-2.85,4.62-5.44,9.37-7.77,14.25Z"/><path class="cls-1" d="M273.84,110.55c-28.99,19-51.62,42.74-65.4,69.45h163.23c-12.32-33.75-49.97-60.45-97.83-69.45Z"/><path class="cls-1" d="M264.6,111.9c1.13-.8,2.27-1.58,3.42-2.36-9.6-1.49-19.56-2.29-29.79-2.29-64.15,0-118.2,30.97-133.45,72.74h99.06c12.58-25.35,33.13-48.57,60.76-68.1Z"/><path class="cls-2" d="M637,116.98c-3.17-2.49-6.37-4.88-9.53-7.12-48.71-34.42-113.41-53.38-182.16-53.38s-133.44,18.96-182.16,53.38c-27.9,19.72-48.61,42.94-61.56,69.03l-.55,1.11h10.21c36.13-68.55,129.96-114.52,234.06-114.52,73.2,0,142.48,22.55,190.1,61.86l1.59,1.31v-11.67Z"/><path class="cls-3" d="M264.6,111.9c48.3-34.13,112.48-52.93,180.71-52.93s132.42,18.8,180.71,52.93c3.8,2.68,7.45,5.44,10.98,8.26v-6.36c-2.69-2.08-5.4-4.09-8.09-5.99-49.13-34.72-114.34-53.84-183.6-53.84s-134.47,19.12-183.6,53.84c-28.25,19.96-49.22,43.5-62.35,69.96l-1.1,2.22h5.58c12.58-25.35,33.13-48.57,60.76-68.1Z"/><path class="cls-3" d="M637,125.41c-46.24-38.18-115.02-62.43-191.69-62.43-108.81,0-201.72,48.84-236.89,117.02h5.66c8.35-15.5,19.87-30.08,34.28-43.38,15.05-13.88,32.92-26.07,53.14-36.24,42.16-21.2,91.89-32.41,143.81-32.41,72.62,0,141.33,22.34,188.51,61.29l3.18,2.63v-6.48Z"/><path class="cls-2" d="M443.68,59.98c-44.78,0-87.21,8.45-125.18,23.56v96.46h318.5v-58.8c-51.65-38.12-119.28-61.22-193.32-61.22Z"/></svg>