<?xml version="1.0" encoding="UTF-8"?><svg id="Layer_7" xmlns="http://www.w3.org/2000/svg" viewBox="0 0 637 180"><defs><style>.cls-1{fill:none;}.cls-1,.cls-2,.cls-3{stroke-width:0px;}.cls-2{fill:#eff1f3;}.cls-3{fill:#bcc4cc;}</style></defs><rect class="cls-3" width="637" height="180"/><circle class="cls-2" cx="358.97" cy="36.72" r="20.19"/><path class="cls-1" d="M210.32,180h35.45c-9.06-4.93-18.28-9.7-27.68-14.25-2.85,4.62-5.44,9.37-7.77,14.25Z"/><path class="cls-2" d="M443.68,59.98c-44.78,0-87.21,8.45-125.18,23.56v96.46h318.5v-58.8c-51.65-38.12-119.28-61.22-193.32-61.22Z"/><path class="cls-1" d="M273.84,110.55c-28.99,19-51.62,42.74-65.4,69.45h163.23c-12.32-33.75-49.97-60.45-97.83-69.45Z"/><path class="cls-1" d="M264.6,111.9c1.13-.8,2.27-1.58,3.42-2.36-9.6-1.49-19.56-2.29-29.79-2.29-64.15,0-118.2,30.97-133.45,72.74h99.06c12.58-25.35,33.13-48.57,60.76-68.1Z"/><path class="cls-2" d="M238.22,107.26c10.23,0,20.19.79,29.79,2.29-1.14.78-2.29,1.56-3.42,2.36-27.63,19.53-48.18,42.75-60.76,68.1h4.6c13.78-26.71,36.42-50.45,65.4-69.45,47.85,9.01,85.51,35.7,97.83,69.45h4.22c-11.98-34.7-49.32-62.39-97.2-72.55,44.44-27.66,102.79-44.47,166.62-44.47,76.68,0,145.44,24.26,191.69,62.45v-5.28c-3.52-2.82-7.18-5.57-10.98-8.25-48.3-34.13-112.48-52.93-180.71-52.93-64.41,0-125.2,16.75-172.43,47.33-11.1-1.99-22.7-3.05-34.66-3.05-66.52,0-122.47,32.74-137.66,76.74h4.22c15.24-41.77,69.29-72.74,133.45-72.74Z"/></svg>